<?xml version="1.0" encoding="UTF-8" standalone="no"?>
<svg
   data-noselect=""
   viewBox="0 0 128 128"
   width="128"
   height="128"
   preserveAspectRatio="none"
   version="1.1"
   class="svg-canvas"
   id="svg59"
   sodipodi:docname="ido.red.ico.svg"
   inkscape:version="1.1.2 (76b9e6a115, 2022-02-25)"
   xmlns:inkscape="http://www.inkscape.org/namespaces/inkscape"
   xmlns:sodipodi="http://sodipodi.sourceforge.net/DTD/sodipodi-0.dtd"
   xmlns="http://www.w3.org/2000/svg"
   xmlns:svg="http://www.w3.org/2000/svg">
  <sodipodi:namedview
     id="namedview61"
     pagecolor="#ffffff"
     bordercolor="#666666"
     borderopacity="1.0"
     inkscape:pageshadow="2"
     inkscape:pageopacity="0.0"
     inkscape:pagecheckerboard="true"
     showgrid="false"
     inkscape:zoom="2"
     inkscape:cx="129.75"
     inkscape:cy="121.25"
     inkscape:window-width="1848"
     inkscape:window-height="1009"
     inkscape:window-x="72"
     inkscape:window-y="34"
     inkscape:window-maximized="1"
     inkscape:current-layer="svg59" />
  <defs
     id="defs2" />
  <g
     id="g17"
     transform="matrix(0.60547402,0,0,0.60455851,4,4)"
     style="fill:#cb271d;fill-opacity:1">
    <polygon
       points="0,60.3 97.5,157 57.1,199.1 0,142.1 "
       fill="#9f231b"
       stroke-width="0"
       id="polygon9"
       style="fill:#cb271d;fill-opacity:1" />
    <polygon
       points="98,42.7 97.9,42.7 41.9,98.7 0,57.1 57.1,0 138.9,0 138.6,0.2 98,42.6 "
       fill="#cb271d"
       stroke-width="0"
       id="polygon11"
       style="fill:#cb271d;fill-opacity:1" />
    <polygon
       points="199.8,143.2 143,200 61.2,200 102,157.5 116.2,143.2 "
       fill="#cb271d"
       stroke-width="0"
       id="polygon13"
       style="fill:#cb271d;fill-opacity:1" />
    <polygon
       points="142.1,1.1 199.1,58.2 199.1,58.5 117.2,58.5 101.7,43.1 141.8,1.3 "
       fill="#9f231b"
       stroke-width="0"
       id="polygon15"
       style="fill:#cb271d;fill-opacity:1" />
  </g>
  <g
     id="shape_Ct8UBWmcC2"
     transform="matrix(0.64353518,0,0,0.87411622,40.241248,-90.704727)"
     filter=""
     style="opacity:1;fill:#cb271d;fill-opacity:1">
    <g
       id="g33"
       style="fill:#cb271d;fill-opacity:1">
      <svg
         version="1.1"
         width="282.76001"
         height="355.64001"
         viewBox="0 0 282.76 355.64"
         id="svg31"
         style="fill:#cb271d;fill-opacity:1">
        <g
           data-width="84.78960000000001"
           transform="translate(49.44)"
           id="g29"
           style="fill:#cb271d;fill-opacity:1">
          <path
             d="M 10.38,0 H 3.36 v -32.98 h 7.02 z"
             transform="translate(0,195.32)"
             fill="#383838"
             stroke="#383838"
             stroke-width="0.082"
             data-glyph-w="13.69488"
             data-glyph-h="49.44"
             data-glyph-ascender="42.46896"
             data-glyph-descender="-6.97104"
             id="path23"
             style="fill:#cb271d;fill-opacity:1" />
          <path
             d="m 3.36,0 v -32.98 h 13.99 q 5.24,0 8.11,1.04 v 0 q 5.29,1.93 7.07,7.07 v 0 q 1.34,3.96 1.34,8.46 v 0 q 0,4.45 -1.29,8.4 v 0 q -1.28,4.05 -4.25,5.98 v 0 Q 26.45,-0.84 24.2,-0.42 21.95,0 17.35,0 v 0 z m 13.99,-27.09 h -6.97 v 21.21 h 6.97 q 4.6,0 6.38,-2.03 v 0 q 1.09,-1.29 1.76,-3.61 0.66,-2.32 0.66,-4.94 v 0 q 0,-2.92 -0.79,-5.34 -0.79,-2.43 -2.07,-3.61 v 0 q -1.88,-1.68 -5.94,-1.68 z"
             transform="translate(13.69488,195.32)"
             fill="#383838"
             stroke="#383838"
             stroke-width="0.082"
             data-glyph-w="35.39904"
             data-glyph-h="49.44"
             data-glyph-ascender="42.46896"
             data-glyph-descender="-6.97104"
             id="path25"
             style="fill:#cb271d;fill-opacity:1" />
          <path
             d="m 17.85,-33.17 v 0 q 4.94,0 8.7,1.68 v 0 q 4.4,2.02 6.18,6.77 v 0 q 1.38,3.71 1.38,8.7 v 0 q 0,5.04 -1.68,8.75 v 0 q -2.12,4.4 -6.52,6.18 v 0 Q 22.64,0.2 18.39,0.2 v 0 Q 12.8,0.2 8.7,-1.88 v 0 q -3.46,-1.73 -5.29,-5.44 -1.83,-3.71 -1.83,-9 v 0 q 0,-9.44 4.7,-13.44 v 0 q 3.95,-3.36 11.57,-3.41 z m 0.05,5.53 v 0 q -4.85,0 -6.92,3.17 v 0 Q 9.29,-22 9.29,-16.51 v 0 q 0,5.78 2.08,8.5 v 0 q 2.08,2.67 6.58,2.67 v 0 q 4.35,0 6.4,-2.72 2.05,-2.72 2.05,-8.4 v 0 q 0,-5.19 -1.68,-7.91 v 0 q -1.93,-3.22 -6.82,-3.27 z"
             transform="translate(49.09392,195.32)"
             fill="#383838"
             stroke="#383838"
             stroke-width="0.082"
             data-glyph-w="35.69568"
             data-glyph-h="49.44"
             data-glyph-ascender="42.46896"
             data-glyph-descender="-6.97104"
             id="path27"
             style="fill:#cb271d;fill-opacity:1" />
        </g>
      </svg>
    </g>
  </g>
  <g
     id="shape_PB4IOetkig"
     transform="matrix(0.95820068,0,0,1.2074295,93.512368,67.474639)"
     filter=""
     style="opacity:1;fill:#cb271d;fill-opacity:1">
    <g
       id="g46"
       style="fill:#cb271d;fill-opacity:1">
      <svg
         version="1.1"
         width="74"
         height="86"
         viewBox="0 0 74 86"
         id="svg44"
         style="fill:#cb271d;fill-opacity:1">
        <g
           data-width="25.3359375"
           transform="translate(12)"
           id="g42"
           style="fill:#cb271d;fill-opacity:1">
          <path
             d="M 2.08,0 H 0.94 v -8.59 h 3.81 q 1.15,0 1.75,0.23 0.6,0.23 0.95,0.82 0.36,0.58 0.36,1.29 v 0 q 0,0.92 -0.59,1.54 -0.59,0.63 -1.83,0.8 v 0 q 0.45,0.22 0.69,0.43 v 0 q 0.49,0.46 0.94,1.14 v 0 L 8.51,0 H 7.08 L 5.95,-1.79 Q 5.45,-2.56 5.13,-2.97 4.8,-3.38 4.55,-3.54 4.29,-3.71 4.03,-3.77 v 0 Q 3.84,-3.81 3.4,-3.81 v 0 H 2.08 Z m 0,-7.64 v 2.84 h 2.44 q 0.78,0 1.22,-0.16 0.44,-0.16 0.67,-0.52 0.23,-0.35 0.23,-0.77 v 0 q 0,-0.61 -0.44,-1 -0.45,-0.39 -1.4,-0.39 v 0 z"
             transform="translate(0,47)"
             fill="#383838"
             stroke="#383838"
             stroke-width="0.02"
             data-glyph-w="8.666015625"
             data-glyph-h="13.40625"
             data-glyph-ascender="10.86328125"
             data-glyph-descender="-2.54296875"
             id="path36"
             style="fill:#cb271d;fill-opacity:1" />
          <path
             d="M 7.36,0 H 0.95 v -8.59 h 6.21 v 1.01 H 2.09 v 2.63 h 4.75 v 1.01 H 2.09 v 2.93 h 5.27 z"
             transform="translate(8.6660156,47)"
             fill="#383838"
             stroke="#383838"
             stroke-width="0.02"
             data-glyph-w="8.00390625"
             data-glyph-h="13.40625"
             data-glyph-ascender="10.86328125"
             data-glyph-descender="-2.54296875"
             id="path38"
             style="fill:#cb271d;fill-opacity:1" />
          <path
             d="m 4.03,0 h -3.1 v -8.59 h 2.95 q 1.01,0 1.53,0.12 v 0 q 0.74,0.17 1.26,0.62 v 0 q 0.68,0.57 1.02,1.47 0.34,0.89 0.34,2.04 v 0 q 0,0.98 -0.23,1.73 -0.23,0.76 -0.59,1.25 -0.35,0.5 -0.78,0.78 Q 6.01,-0.29 5.41,-0.15 4.8,0 4.03,0 Z M 2.06,-7.58 v 6.57 H 3.9 q 0.85,0 1.33,-0.16 Q 5.71,-1.33 6,-1.62 v 0 q 0.4,-0.4 0.63,-1.08 0.23,-0.69 0.23,-1.66 v 0 Q 6.86,-5.71 6.41,-6.43 5.97,-7.15 5.34,-7.4 v 0 Q 4.88,-7.58 3.87,-7.58 v 0 z"
             transform="translate(16.669922,47)"
             fill="#383838"
             stroke="#383838"
             stroke-width="0.02"
             data-glyph-w="8.666015625"
             data-glyph-h="13.40625"
             data-glyph-ascender="10.86328125"
             data-glyph-descender="-2.54296875"
             id="path40"
             style="fill:#cb271d;fill-opacity:1" />
        </g>
      </svg>
    </g>
  </g>
  <defs
     id="defs55">
    <pattern
       id="wm_tile"
       x="0"
       y="0"
       width="20%"
       height="27%"
       patternunits="objectBoundingBox">
      <g
         id="wm_lm"
         transform="translate(-188.000000, -323.000000)"
         fill="#cccccc">
        <text
           font-size="15"
           transform="translate(270.490979, 373.245789) rotate(-390.000000) translate(-270.490979, -373.245789)"
           id="text51"><tspan
             x="187.490979"
             opacity=".3"
             y="378.245789"
             id="tspan49">copyright © copyright © </tspan></text>
      </g>
    </pattern>
  </defs>
</svg>
