<?xml version="1.0" standalone="no"?>
<!DOCTYPE svg PUBLIC "-//W3C//DTD SVG 20010904//EN"
 "http://www.w3.org/TR/2001/REC-SVG-20010904/DTD/svg10.dtd">
<svg version="1.0" xmlns="http://www.w3.org/2000/svg"
 width="700.000000pt" height="700.000000pt" viewBox="0 0 700.000000 700.000000"
 preserveAspectRatio="xMidYMid meet">
<metadata>
Created by potrace 1.14, written by Peter Selinger 2001-2017
</metadata>
<g transform="translate(0.000000,700.000000) scale(0.100000,-0.100000)"
fill="#000000" stroke="none">
<path d="M2305 6782 l-200 -3 -943 -942 -942 -942 257 -257 c214 -213 873
-866 1076 -1066 l53 -53 980 979 c538 538 1053 1056 1144 1151 187 197 240
252 384 401 55 58 185 193 287 300 103 107 236 247 297 310 61 63 105 116 99
118 -18 4 -2257 8 -2492 4z"/>
<path d="M4836 6658 c-43 -45 -159 -167 -259 -271 -100 -104 -211 -219 -246
-255 -35 -37 -152 -159 -260 -271 -108 -113 -214 -223 -236 -246 -22 -24 -87
-91 -144 -149 l-104 -108 255 -255 255 -255 1352 0 c744 0 1354 2 1357 4 5 6
-1874 1888 -1885 1888 -4 0 -42 -37 -85 -82z"/>
<path d="M220 3434 l0 -1350 115 -115 c63 -63 487 -487 943 -942 l829 -828
115 118 c63 65 130 134 149 154 19 20 125 130 235 245 111 115 228 237 260
270 113 118 450 468 512 532 34 35 62 67 62 71 0 7 -313 321 -770 772 -146
143 -615 608 -1043 1033 -428 424 -889 880 -1025 1014 -136 134 -277 273 -314
310 l-68 66 0 -1350z"/>
<path d="M4090 4202 l-35 -3 1 -787 0 -787 125 0 124 0 1 788 c2 587 -1 787
-10 788 -67 3 -178 3 -206 1z"/>
<path d="M4568 4202 l-28 -3 0 -789 0 -789 318 1 c187 1 342 6 377 13 121 22
218 92 270 194 14 28 25 52 25 53 -1 2 6 19 14 40 14 32 31 95 41 153 2 11 7
34 10 50 24 134 25 361 1 556 -19 154 -81 303 -160 383 -79 81 -163 119 -296
132 -69 6 -525 11 -572 6z m595 -310 c73 -32 113 -89 142 -199 27 -100 29
-124 30 -273 0 -147 -7 -228 -25 -274 -5 -14 -7 -26 -4 -26 2 0 -2 -13 -11
-30 -8 -16 -15 -32 -15 -35 1 -13 -31 -63 -56 -88 -50 -51 -176 -68 -411 -58
l-23 1 0 503 0 504 163 -2 c141 -2 168 -5 210 -23z"/>
<path d="M6188 4205 c-2 -2 -15 -6 -28 -8 -141 -27 -253 -105 -323 -225 -31
-56 -63 -134 -72 -180 -2 -13 -6 -31 -9 -40 -19 -62 -30 -187 -30 -337 0 -122
10 -270 19 -285 2 -3 6 -19 9 -34 56 -307 272 -491 566 -481 47 2 96 5 110 8
142 26 251 103 324 227 38 65 83 186 91 247 2 21 8 49 11 63 13 51 12 384 -2
475 -26 174 -43 230 -98 329 -91 162 -247 244 -464 244 -55 0 -102 -1 -104 -3z
m247 -300 c47 -27 67 -49 95 -104 44 -87 64 -209 64 -396 0 -346 -83 -506
-272 -520 -188 -15 -292 107 -318 375 -12 118 -7 289 12 405 13 82 64 182 113
223 25 21 83 44 121 49 19 3 36 6 38 8 9 8 113 -20 147 -40z"/>
<path d="M3827 1806 c-207 -209 -460 -469 -661 -679 -32 -34 -151 -158 -265
-276 -233 -242 -243 -253 -475 -495 -94 -97 -172 -179 -175 -181 -2 -3 605 -5
1350 -5 l1354 0 932 933 c513 512 935 935 938 938 2 3 -617 5 -1377 5 l-1382
0 -239 -240z"/>
<path d="M5802 772 c-9 -3 -12 -72 -12 -286 l0 -283 26 3 c14 1 28 5 31 8 3 3
6 58 7 123 l1 118 35 2 c66 4 106 -18 131 -72 5 -11 28 -56 52 -99 40 -76 44
-80 78 -82 36 -1 37 -1 25 25 -36 82 -90 176 -116 204 -26 27 -27 33 -12 36
28 6 71 41 85 69 37 74 7 197 -54 222 -28 12 -249 22 -277 12z m242 -73 c53
-25 59 -123 9 -156 -18 -12 -48 -17 -112 -17 l-86 -1 -2 93 -2 92 84 0 c46 0
95 -5 109 -11z"/>
<path d="M6249 760 c-6 -101 -2 -543 6 -548 14 -9 319 -8 326 1 3 4 4 20 1 35
l-4 27 -134 -1 c-116 -1 -134 1 -135 15 -1 17 -1 148 0 167 1 7 42 10 121 9
66 0 120 2 121 5 1 3 2 17 3 33 3 31 12 29 -138 31 l-109 1 0 73 c1 39 2 78 2
85 1 10 30 13 131 13 78 -1 131 3 133 9 2 6 1 21 -2 35 l-6 25 -157 0 c-135 1
-158 -2 -159 -15z"/>
<path d="M6672 771 c-4 -4 -8 -132 -7 -286 l0 -280 105 2 c123 3 125 3 166 27
59 35 64 54 64 263 l0 189 -29 32 c-17 18 -43 37 -58 43 -29 12 -227 19 -241
10z m233 -85 c58 -38 86 -171 60 -283 -24 -102 -59 -129 -172 -128 l-68 0 -1
210 c0 116 1 213 3 216 6 14 152 2 178 -15z"/>
</g>
</svg>
